<svg xmlns="http://www.w3.org/2000/svg" aria-hidden="true">
  <symbol id="chat" width="16" height="16" fill="currentColor" viewBox="0 0 16 16">
    <path d="M16 2a2 2 0 0 0-2-2H2a2 2 0 0 0-2 2v8a2 2 0 0 0 2 2h9.586a1 1 0 0 1 .707.293l2.853 2.853a.5.5 0 0 0 .854-.353V2zM3.5 3h9a.5.5 0 0 1 0 1h-9a.5.5 0 0 1 0-1zm0 2.5h9a.5.5 0 0 1 0 1h-9a.5.5 0 0 1 0-1zm0 2.5h5a.5.5 0 0 1 0 1h-5a.5.5 0 0 1 0-1z"/>
  </symbol>

  <symbol id="caret-down" width="16" height="16" fill="currentColor" viewBox="0 0 16 16">
    <path d="M7.247 11.14 2.451 5.658C1.885 5.013 2.345 4 3.204 4h9.592a1 1 0 0 1 .753 1.659l-4.796 5.48a1 1 0 0 1-1.506 0z"/>
  </symbol>

  <symbol id="heart-fill" width="16" height="16" fill="currentColor" viewBox="0 0 16 16">
    <path fill-rule="evenodd" d="M8 1.314C12.438-3.248 23.534 4.735 8 15-7.534 4.736 3.562-3.248 8 1.314z"/>
  </symbol>

</svg>
